<?xml version="1.0" encoding="UTF-8" standalone="no"?>
<svg width="800" height="400" viewBox="0 0 800 400" xmlns="http://www.w3.org/2000/svg">
  <!-- Time Series Chart -->
  <g transform="translate(50, 50)">
    <path d="M0,150 C100,100 200,200 300,150" fill="none" stroke="#8884d8" stroke-width="2"/>
    <path d="M0,160 C100,110 200,210 300,160" fill="none" stroke="#82ca9d" stroke-width="2" stroke-dasharray="5,5"/>
    <path d="M0,170 C100,120 200,220 300,170" fill="#8884d8" fill-opacity="0.1"/>
  </g>
  
  <!-- Bar Chart -->
  <g transform="translate(400, 50)">
    <rect x="20" y="100" width="30" height="100" fill="#8884d8"/>
    <rect x="60" y="80" width="30" height="120" fill="#82ca9d"/>
    <rect x="100" y="60" width="30" height="140" fill="#8884d8"/>
    <rect x="140" y="90" width="30" height="110" fill="#82ca9d"/>
  </g>
  
  <!-- Area Chart -->
  <g transform="translate(50, 250)">
    <path d="M0,100 C50,80 100,60 150,40 L150,100 L0,100 Z" fill="#82ca9d" fill-opacity="0.6"/>
  </g>
</svg>
